<?xml version="1.0" encoding="UTF-8"?>
<svg id="Layer_2" data-name="Layer 2" xmlns="http://www.w3.org/2000/svg" viewBox="0 0 492.88 157.74">
  <g id="B_B" data-name="B&amp;amp;B">
    <g>
      <path d="M30.14,3.73V155.01c-8.32,.29-18.37,.86-30.14,1.72v-2.58c12.25-3.35,18.37-16.31,18.37-38.9V40.48C18.37,20.57,12.25,8.61,0,4.59V2.01c9.95,.96,20,1.53,30.14,1.72Zm10.62,151.28V3.73l24.54-1.72c12.15,0,21.82,3.78,28.99,11.34,7.08,7.66,10.62,17.37,10.62,29.14,0,14.74-6.41,25.36-19.23,31.86,20.67,4.69,31,18.13,31,40.33,0,11.2-3.4,21-10.19,29.42-6.89,8.42-17.99,12.63-33.3,12.63-5.65,0-11.77-.34-18.37-1-5.93-.48-10.62-.72-14.07-.72Zm11.77-112.1v28.85h11.05c9.19,0,16.27-2.49,21.24-7.46,4.97-4.97,7.46-12.15,7.46-21.53s-2.68-17.03-8.04-22.1c-5.36-4.97-11.77-7.46-19.23-7.46-4.11,0-7.42,1-9.9,3.01-1.72,5.17-2.58,14.07-2.58,26.7Zm14.35,39.04h-14.35v25.83c0,18.08,1.96,29.52,5.88,34.3,3.35,2.58,8.37,3.88,15.07,3.88,11.2,0,19.18-3.25,23.97-9.76,4.59-6.51,6.89-14.11,6.89-22.82,0-6.98-1.48-12.96-4.45-17.94-3.06-5.07-6.89-8.61-11.48-10.62-4.88-1.91-12.06-2.87-21.53-2.87Zm40.04-12.2c5.84-7.65,8.76-16.74,8.76-27.27,0-8.32-1.63-15.79-4.88-22.39-3.35-6.79-7.23-11.34-11.63-13.63,9.47,2.01,16.74,6.08,21.82,12.2,5.07,6.22,7.61,13.11,7.61,20.67,0,6.7-2.11,13.01-6.31,18.95-4.21,5.74-9.33,9.57-15.36,11.48Zm7.18,81.24c8.8-9.28,13.2-21.15,13.2-35.59,0-15.5-4.59-28.04-13.78-37.6,18.18,6.6,27.27,18.76,27.27,36.46,0,8.71-2.54,16.46-7.61,23.25-5.07,6.8-11.44,11.29-19.09,13.49Z"/>
      <path d="M173.81,87.27c-2.78,7.75-4.16,15.41-4.16,22.96,0,10.43,2.63,19.9,7.89,28.42,5.26,8.61,11.77,14.83,19.52,18.66-11.77-.77-21.39-4.74-28.85-11.91-7.56-7.27-11.34-16.03-11.34-26.27,0-11.96,5.64-22.58,16.94-31.86Zm93.01,53.54c-12.15,11.2-25.12,16.79-38.9,16.79s-25.6-5.21-34.59-15.65c-9.09-10.52-13.64-21.48-13.64-32.87,0-15.88,7.37-28.9,22.1-39.04-9.09-12.82-13.64-22.92-13.64-30.28,0-5.55,1.34-11.05,4.02-16.51,.29,6.7,2.34,13.73,6.17,21.1,2.1,3.92,5.17,8.56,9.19,13.92,4.02,5.36,9.81,12.49,17.37,21.39,2.49,2.87,6.34,7.25,11.55,13.13,5.21,5.88,10.28,11.48,15.21,16.79,4.93,5.31,8.44,9.07,10.55,11.27,11.2,11.77,20.76,20.24,28.71,25.4,8.42,5.45,16.31,8.95,23.68,10.48-3.35,.67-6.37,1-9.04,1-8.61,0-15.69-1.48-21.24-4.45-5.74-3.06-11.58-7.22-17.51-12.49Zm-58.27-62.29c-10.62,8.42-15.93,18.23-15.93,29.42,0,9.09,3.54,17.7,10.62,25.83,6.98,8.13,16.22,12.2,27.7,12.2,8.9,0,18.04-4.26,27.41-12.77-3.64-3.63-8.13-8.28-13.49-13.92-5.36-5.64-10.6-11.29-15.72-16.94-5.12-5.64-9.45-10.62-12.99-14.93-4.59-5.36-7.13-8.32-7.61-8.9Zm129.89,61.14l1.44,2.01c-6.41,4.12-12.25,6.17-17.51,6.17-6.99,0-15.31-3.3-24.97-9.9-5.07-3.54-11.12-8.68-18.16-15.43-7.03-6.75-15.81-15.76-26.34-27.06-19.62-21.15-33.01-36.84-40.19-47.08-6.8-9.66-10.19-17.75-10.19-24.26s2.77-12.39,8.32-17.08c5.55-4.69,13.2-7.03,22.96-7.03s17.56,2.49,23.97,7.46c6.51,5.07,9.76,11.53,9.76,19.38,0,13.11-9.57,25.07-28.71,35.88,8.71,10.33,22.87,25.69,42.48,46.07,9.47-11.2,14.21-19.71,14.21-25.55,0-6.98-5.6-11.19-16.79-12.63v-2.58c15.31,1.34,26.27,2.01,32.87,2.01,1.44,0,4.64-.09,9.62-.29,5.64-.29,10.33-.43,14.07-.43v2.44c-8.52,.19-17.99,7.32-28.42,21.39l-9.19,12.2c-.29,.29-.81,.91-1.58,1.87l-7.03,9.04c17.13,16.84,30.52,25.26,40.19,25.26,3.06,0,6.12-.62,9.19-1.87ZM228.5,50.52l2.87,3.44c12.06-6.22,18.08-14.5,18.08-24.83,0-5.74-1.68-10.28-5.02-13.64-3.25-3.25-7.56-4.88-12.92-4.88-5.93,0-10.38,1.48-13.35,4.45-2.97,2.97-4.45,6.03-4.45,9.19,0,5.93,4.93,14.69,14.78,26.27Z"/>
      <path d="M382.21,3.73V155.01c-8.32,.29-18.37,.86-30.14,1.72v-2.58c12.25-3.35,18.37-16.31,18.37-38.9V40.48c0-19.9-6.12-31.86-18.37-35.88V2.01c9.95,.96,20,1.53,30.14,1.72Zm10.62,151.28V3.73l24.54-1.72c12.15,0,21.82,3.78,28.99,11.34,7.08,7.66,10.62,17.37,10.62,29.14,0,14.74-6.41,25.36-19.23,31.86,20.67,4.69,31,18.13,31,40.33,0,11.2-3.4,21-10.19,29.42-6.89,8.42-17.99,12.63-33.3,12.63-5.65,0-11.77-.34-18.37-1-5.93-.48-10.62-.72-14.07-.72Zm11.77-112.1v28.85h11.05c9.19,0,16.27-2.49,21.24-7.46,4.97-4.97,7.46-12.15,7.46-21.53s-2.68-17.03-8.04-22.1c-5.36-4.97-11.77-7.46-19.23-7.46-4.12,0-7.42,1-9.9,3.01-1.72,5.17-2.58,14.07-2.58,26.7Zm14.35,39.04h-14.35v25.83c0,18.08,1.96,29.52,5.88,34.3,3.35,2.58,8.37,3.88,15.07,3.88,11.2,0,19.18-3.25,23.97-9.76,4.59-6.51,6.89-14.11,6.89-22.82,0-6.98-1.48-12.96-4.45-17.94-3.06-5.07-6.89-8.61-11.48-10.62-4.88-1.91-12.06-2.87-21.53-2.87Zm40.04-12.2c5.83-7.65,8.75-16.74,8.75-27.27,0-8.32-1.63-15.79-4.88-22.39-3.35-6.79-7.23-11.34-11.63-13.63,9.47,2.01,16.74,6.08,21.82,12.2,5.07,6.22,7.61,13.11,7.61,20.67,0,6.7-2.11,13.01-6.32,18.95-4.21,5.74-9.33,9.57-15.36,11.48Zm7.18,81.24c8.8-9.28,13.21-21.15,13.21-35.59,0-15.5-4.59-28.04-13.78-37.6,18.18,6.6,27.27,18.76,27.27,36.46,0,8.71-2.54,16.46-7.61,23.25-5.07,6.8-11.44,11.29-19.09,13.49Z"/>
    </g>
  </g>
</svg>